REM DIRINDEX 1\2,1\3,1\4,1\5
REM DIRNAME cjc093,folder01,folder02,folder03,folder04
TITLE ""
FILE "Round-04-078-079.mp3" MP3
  TRACK 01 AUDIO
    TITLE "0:"
    INDEX 01 00:00:00
  TRACK 02 AUDIO
    TITLE "2:cjc093_0903"
    INDEX 01 00:00:01
  TRACK 03 AUDIO
    TITLE "0:"
    INDEX 01 00:01:40
  TRACK 04 AUDIO
    TITLE "3:cjc093_0904"
    INDEX 01 00:01:48
  TRACK 05 AUDIO
    TITLE "0:"
    INDEX 01 00:03:10
  TRACK 06 AUDIO
    TITLE "4:cjc093_0905"
    INDEX 01 00:03:31
  TRACK 07 AUDIO
    TITLE "0:"
    INDEX 01 00:08:17
  TRACK 08 AUDIO
    TITLE "2:cjc093_0906"
    INDEX 01 00:09:30
  TRACK 09 AUDIO
    TITLE "0:"
    INDEX 01 00:10:57
  TRACK 10 AUDIO
    TITLE "3:cjc093_0907"
    INDEX 01 00:11:23
  TRACK 11 AUDIO
    TITLE "0:"
    INDEX 01 00:14:00
  TRACK 12 AUDIO
    TITLE "4:cjc093_0908"
    INDEX 01 00:14:29
  TRACK 13 AUDIO
    TITLE "0:"
    INDEX 01 00:17:59
  TRACK 14 AUDIO
    TITLE "3:cjc093_0909"
    INDEX 01 00:18:72
  TRACK 15 AUDIO
    TITLE "0:"
    INDEX 01 00:20:73
  TRACK 16 AUDIO
    TITLE "4:cjc093_0910"
    INDEX 01 00:21:41
  TRACK 17 AUDIO
    TITLE "0:"
    INDEX 01 00:25:13
  TRACK 18 AUDIO
    TITLE "2:cjc093_0911"
    INDEX 01 00:26:26
  TRACK 19 AUDIO
    TITLE "0:"
    INDEX 01 00:27:32
  TRACK 20 AUDIO
    TITLE "3:cjc093_0912"
    INDEX 01 00:27:73
  TRACK 21 AUDIO
    TITLE "0:"
    INDEX 01 00:30:10
  TRACK 22 AUDIO
    TITLE "4:cjc093_0913"
    INDEX 01 00:30:34
  TRACK 23 AUDIO
    TITLE "0:"
    INDEX 01 00:33:42
  TRACK 24 AUDIO
    TITLE "3:cjc093_0914"
    INDEX 01 00:34:51
  TRACK 25 AUDIO
    TITLE "0:"
    INDEX 01 00:35:63
  TRACK 26 AUDIO
    TITLE "4:cjc093_0915"
    INDEX 01 00:36:27
  TRACK 27 AUDIO
    TITLE "0:"
    INDEX 01 00:38:65
  TRACK 28 AUDIO
    TITLE "2:cjc093_0916"
    INDEX 01 00:40:07
  TRACK 29 AUDIO
    TITLE "0:"
    INDEX 01 00:41:18
  TRACK 30 AUDIO
    TITLE "3:cjc093_0917"
    INDEX 01 00:41:65
  TRACK 31 AUDIO
    TITLE "0:"
    INDEX 01 00:43:58
  TRACK 32 AUDIO
    TITLE "4:cjc093_0918"
    INDEX 01 00:44:50
  TRACK 33 AUDIO
    TITLE "0:"
    INDEX 01 00:48:04
  TRACK 34 AUDIO
    TITLE "2:cjc093_0919"
    INDEX 01 00:49:18
  TRACK 35 AUDIO
    TITLE "0:"
    INDEX 01 00:51:11
  TRACK 36 AUDIO
    TITLE "3:cjc093_0920"
    INDEX 01 00:51:52
  TRACK 37 AUDIO
    TITLE "0:"
    INDEX 01 00:53:62
  TRACK 38 AUDIO
    TITLE "4:cjc093_0921"
    INDEX 01 00:54:19
  TRACK 39 AUDIO
    TITLE "0:"
    INDEX 01 00:57:03
  TRACK 40 AUDIO
    TITLE "2:cjc093_0922"
    INDEX 01 00:58:17
  TRACK 41 AUDIO
    TITLE "0:"
    INDEX 01 00:59:26
  TRACK 42 AUDIO
    TITLE "3:cjc093_0923"
    INDEX 01 00:59:63
  TRACK 43 AUDIO
    TITLE "0:"
    INDEX 01 01:00:74
  TRACK 44 AUDIO
    TITLE "4:cjc093_0924"
    INDEX 01 01:01:50
  TRACK 45 AUDIO
    TITLE "0:"
    INDEX 01 01:04:01
  TRACK 46 AUDIO
    TITLE "3:cjc093_0925"
    INDEX 01 01:05:05
  TRACK 47 AUDIO
    TITLE "0:"
    INDEX 01 01:06:10
  TRACK 48 AUDIO
    TITLE "4:cjc093_0926"
    INDEX 01 01:06:47
  TRACK 49 AUDIO
    TITLE "0:"
    INDEX 01 01:09:52
  TRACK 50 AUDIO
    TITLE "2:cjc093_0927"
    INDEX 01 01:11:00
  TRACK 51 AUDIO
    TITLE "0:"
    INDEX 01 01:12:03
  TRACK 52 AUDIO
    TITLE "3:cjc093_0928"
    INDEX 01 01:12:44
  TRACK 53 AUDIO
    TITLE "0:"
    INDEX 01 01:13:55
  TRACK 54 AUDIO
    TITLE "4:cjc093_0929"
    INDEX 01 01:14:27
  TRACK 55 AUDIO
    TITLE "0:"
    INDEX 01 01:18:07
  TRACK 56 AUDIO
    TITLE "3:cjc093_0930"
    INDEX 01 01:19:34
  TRACK 57 AUDIO
    TITLE "0:"
    INDEX 01 01:20:48
  TRACK 58 AUDIO
    TITLE "4:cjc093_0931"
    INDEX 01 01:20:65
  TRACK 59 AUDIO
    TITLE "0:"
    INDEX 01 01:23:54
  TRACK 60 AUDIO
    TITLE "2:cjc093_0932"
    INDEX 01 01:25:02
  TRACK 61 AUDIO
    TITLE "0:"
    INDEX 01 01:26:13
  TRACK 62 AUDIO
    TITLE "3:cjc093_0933"
    INDEX 01 01:26:44
  TRACK 63 AUDIO
    TITLE "0:"
    INDEX 01 01:27:71
  TRACK 64 AUDIO
    TITLE "4:cjc093_0934"
    INDEX 01 01:28:27
  TRACK 65 AUDIO
    TITLE "0:"
    INDEX 01 01:30:62
